<svg version="1.1" xmlns="http://www.w3.org/2000/svg" xmlns:xlink="http://www.w3.org/1999/xlink" x="0px" y="0px"
	 viewBox="0 0 17.9 12.6" style="enable-background:new 0 0 17.9 12.6;" xml:space="preserve">
	<path d="M17.8,0.9l-5.4,5.4l5.4,5.4c0.1-0.2,0.2-0.4,0.2-0.7V1.6C17.9,1.3,17.9,1.1,17.8,0.9z"/>
	<path d="M16.3,0H1.6C1.3,0,1.1,0.1,0.9,0.2l6.9,6.9c0.6,0.6,1.6,0.6,2.2,0L17,0.2C16.8,0.1,16.6,0,16.3,0z"/>
	<path d="M0.2,0.9C0.1,1.1,0,1.3,0,1.6V11c0,0.2,0.1,0.5,0.2,0.7l5.4-5.4L0.2,0.9z"/>
	<path d="M11.6,7l-0.8,0.8c-1,1-2.7,1-3.7,0L6.3,7l-5.4,5.4c0.2,0.1,0.4,0.2,0.7,0.2h14.8c0.2,0,0.5-0.1,0.7-0.2L11.6,7
		z"/>
</svg>
