<svg viewBox="0 0 28 25" xmlns="http://www.w3.org/2000/svg">
  <path d="M25.0292 2.90948C23.6452 1.391 21.7462 0.554688 19.6815 0.554688C18.1382 0.554688 16.7249 1.04826 15.4806 2.02159C14.8528 2.51289 14.2839 3.11397 13.7823 3.81554C13.2809 3.11418 12.7118 2.51289 12.0838 2.02159C10.8397 1.04826 9.42636 0.554688 7.88307 0.554688C5.81841 0.554688 3.91917 1.391 2.53518 2.90948C1.16772 4.41022 0.414429 6.46046 0.414429 8.68278C0.414429 10.9701 1.25706 13.0639 3.06614 15.2722C4.6845 17.2475 7.01045 19.2527 9.70398 21.5747C10.6237 22.3677 11.6662 23.2665 12.7487 24.224C13.0347 24.4774 13.4017 24.6169 13.7823 24.6169C14.1627 24.6169 14.5299 24.4774 14.8155 24.2244C15.898 23.2668 16.9411 22.3675 17.8612 21.5741C20.5544 19.2525 22.8803 17.2475 24.4987 15.272C26.3078 13.0639 27.1502 10.9701 27.1502 8.68257C27.1502 6.46046 26.3969 4.41022 25.0292 2.90948Z" />
</svg>
